<svg width="47" height="47" viewBox="0 0 47 47" fill="none" xmlns="http://www.w3.org/2000/svg">
<g id="game-icons:night-sky">
<path id="Vector" d="M23.2992 1.43442C11.1526 1.43442 1.28796 11.2989 1.28796 23.4455C1.28796 35.592 11.1527 45.4567 23.2992 45.4567C35.4458 45.4567 45.3104 35.5922 45.3104 23.4457C45.3104 11.2991 35.4457 1.43433 23.2993 1.43433L23.2992 1.43442ZM23.2992 3.07813C34.5584 3.07813 43.6695 12.1865 43.6695 23.4457C43.6695 26.2673 43.0948 28.9526 42.06 31.3947L38.173 28.2075C33.6187 29.4909 28.0445 29.0367 25.4219 22.6195L21.5692 36.6587C20.758 32.4792 19.4257 29.1975 17.1717 26.0819C15.3624 27.3537 14.2019 29.0772 13.5255 30.7608L8.16438 21.7587C6.5258 24.2666 5.0644 26.9512 4.03058 30.0636C3.3197 27.989 2.93195 25.7627 2.93195 23.4456C2.93195 21.0577 3.34357 18.7664 4.09658 16.6383C4.34921 17.2449 4.94754 17.671 5.64565 17.671C6.57216 17.671 7.3237 16.9222 7.3237 15.9957C7.3237 15.0692 6.57216 14.3177 5.64565 14.3177C5.42672 14.3177 5.21788 14.3617 5.02602 14.4379C7.55383 9.31289 12.1706 5.40803 17.7715 3.83537C17.7195 4.01731 17.6935 4.20566 17.694 4.39487C17.694 5.50983 18.5957 6.4144 19.7108 6.4144C20.8256 6.4144 21.7303 5.50983 21.7303 4.39487C21.7303 3.9368 21.577 3.51454 21.32 3.1758C21.971 3.11311 22.6317 3.07813 23.2994 3.07813H23.2992ZM25.0204 5.61696C24.8798 5.61687 24.7407 5.6445 24.6108 5.69824C24.4809 5.75199 24.3629 5.83081 24.2635 5.93019C24.1642 6.02957 24.0853 6.14757 24.0316 6.27744C23.9779 6.4073 23.9502 6.54649 23.9503 6.68704C23.9503 7.27848 24.4289 7.75987 25.0203 7.75987C25.6118 7.75987 26.0932 7.27857 26.0932 6.68713C26.0932 6.09559 25.6118 5.61714 25.0203 5.61714L25.0204 5.61696ZM18.1785 8.28201C17.6259 8.28751 17.0648 8.36169 16.5061 8.5115C12.9311 9.46931 10.8092 13.1436 11.7671 16.7186C12.7251 20.2937 16.3995 22.4155 19.9744 21.4576C21.9675 20.9235 23.5068 19.5436 24.3146 17.8087C23.6668 18.5076 22.8344 19.0088 21.9136 19.2545C19.2052 19.9801 16.4199 18.3742 15.6944 15.6658C14.9685 12.9574 16.5775 10.1751 19.2858 9.4493C20.2414 9.19337 21.2049 9.22742 22.0856 9.49822C20.9584 8.70895 19.5965 8.26778 18.1785 8.28201ZM32.4329 8.35636C31.5693 8.35636 30.8696 9.05622 30.8696 9.91985C30.8696 10.7837 31.5693 11.4833 32.4329 11.4833C33.2967 11.4833 33.9964 10.7836 33.9964 9.92003C33.9964 9.05622 33.2966 8.35645 32.4331 8.35645L32.4329 8.35636ZM9.58126 10.8694C8.98981 10.8694 8.51128 11.3508 8.51128 11.9423C8.51128 12.5338 8.98972 13.0123 9.58117 13.0123C10.1726 13.0123 10.6512 12.5338 10.6512 11.9423C10.6512 11.3508 10.1727 10.8694 9.58126 10.8694ZM34.8886 14.6159L34.8312 17.3554L32.2407 18.2561L34.8312 19.1569L34.8886 21.8964L36.5437 19.7135L39.1656 20.5052L37.6023 18.2562L39.1656 16.0044L36.5437 16.7989L34.8886 14.616L34.8886 14.6159ZM28.2706 15.6801C27.6789 15.6801 27.2004 16.1585 27.2004 16.7501C27.2004 17.3414 27.6789 17.8228 28.2705 17.8228C28.8618 17.8228 29.3432 17.3414 29.3432 16.75C29.3432 16.1584 28.8618 15.6799 28.2704 15.6799L28.2706 15.6801ZM41.0303 22.5419C40.4387 22.5419 39.9602 23.0233 39.9602 23.6147C39.9602 24.2062 40.4387 24.6847 41.0302 24.6847C41.6216 24.6847 42.103 24.2062 42.103 23.6147C42.103 23.0233 41.6216 22.5418 41.0301 22.5418L41.0303 22.5419ZM29.3433 22.8632C28.7518 22.8632 28.2733 23.3446 28.2733 23.936C28.2733 24.5275 28.7518 25.006 29.3433 25.006C29.4838 25.0061 29.623 24.9785 29.7529 24.9248C29.8827 24.871 30.0007 24.7922 30.1001 24.6928C30.1995 24.5935 30.2783 24.4755 30.332 24.3456C30.3858 24.2158 30.4134 24.0766 30.4133 23.936C30.4133 23.3446 29.9348 22.8632 29.3433 22.8632Z" fill="black"/>
</g>
</svg>
