<svg width="74" height="74" viewBox="0 0 74 74" fill="none" xmlns="http://www.w3.org/2000/svg">
<g id="logo">
<path id="Vector" d="M38.9367 0.419141C38.3296 0.144531 37.6792 0 36.9999 0C36.3206 0 35.6703 0.144531 35.0632 0.419141L7.84799 11.9672C4.6683 13.3113 2.29799 16.4477 2.31244 20.2344C2.38471 34.5719 8.28159 60.8043 33.1843 72.7281C35.598 73.8844 38.4019 73.8844 40.8156 72.7281C65.7183 60.8043 71.6152 34.5719 71.6874 20.2344C71.7019 16.4477 69.3316 13.3113 66.1519 11.9672L38.9367 0.419141ZM23.1249 22.3156C23.1249 21.4773 23.8042 20.8125 24.6281 20.8125H24.657C25.1484 20.8125 25.5964 21.0438 25.8855 21.434L31.6667 29.1375C32.1003 29.7156 32.7941 30.0625 33.5167 30.0625H40.4542C41.1769 30.0625 41.8706 29.7156 42.3042 29.1375L48.0855 21.434C48.3746 21.0438 48.8371 20.8125 49.314 20.8125H49.3429C50.1812 20.8125 50.846 21.4918 50.846 22.3156V39.3125C50.846 46.9727 44.6312 53.1875 36.971 53.1875C29.3109 53.1875 23.096 46.9727 23.096 39.3125V22.3156H23.1249ZM31.2187 41.625C31.832 41.625 32.4202 41.3814 32.8539 40.9477C33.2876 40.514 33.5312 39.9258 33.5312 39.3125C33.5312 38.6992 33.2876 38.111 32.8539 37.6773C32.4202 37.2436 31.832 37 31.2187 37C30.6054 37 30.0172 37.2436 29.5835 37.6773C29.1498 38.111 28.9062 38.6992 28.9062 39.3125C28.9062 39.9258 29.1498 40.514 29.5835 40.9477C30.0172 41.3814 30.6054 41.625 31.2187 41.625ZM45.0937 39.3125C45.0937 38.6992 44.8501 38.111 44.4164 37.6773C43.9827 37.2436 43.3945 37 42.7812 37C42.1679 37 41.5797 37.2436 41.146 37.6773C40.7123 38.111 40.4687 38.6992 40.4687 39.3125C40.4687 39.9258 40.7123 40.514 41.146 40.9477C41.5797 41.3814 42.1679 41.625 42.7812 41.625C43.3945 41.625 43.9827 41.3814 44.4164 40.9477C44.8501 40.514 45.0937 39.9258 45.0937 39.3125Z" fill="white"/>
</g>
</svg>
