<?xml version="1.0" standalone="no"?>
<!DOCTYPE svg PUBLIC "-//W3C//DTD SVG 20010904//EN"
 "http://www.w3.org/TR/2001/REC-SVG-20010904/DTD/svg10.dtd">
<svg version="1.0" xmlns="http://www.w3.org/2000/svg"
 width="700.000000pt" height="700.000000pt" viewBox="0 0 700.000000 700.000000"
 preserveAspectRatio="xMidYMid meet">
<metadata>
Created by potrace 1.14, written by Peter Selinger 2001-2017
</metadata>
<g transform="translate(0.000000,700.000000) scale(0.100000,-0.100000)"
fill="#000000" stroke="none">
<path d="M3390 6986 c-39 -12 -233 -91 -357 -147 -24 -10 -45 -19 -48 -19 -2
0 -28 -11 -57 -24 -29 -14 -172 -75 -318 -137 -146 -61 -413 -174 -595 -251
-336 -143 -370 -157 -428 -182 -17 -8 -108 -46 -202 -86 -93 -39 -194 -83
-223 -96 -29 -13 -56 -24 -61 -24 -4 0 -21 -6 -37 -14 -16 -8 -110 -49 -208
-91 -99 -42 -209 -96 -246 -119 -198 -128 -338 -336 -378 -561 -14 -80 -5
-547 13 -656 2 -13 6 -51 9 -84 4 -33 8 -76 11 -95 2 -19 7 -57 10 -85 6 -49
11 -81 19 -120 2 -11 7 -40 11 -65 3 -25 9 -57 11 -72 17 -106 79 -387 119
-536 228 -847 613 -1597 1132 -2203 164 -192 409 -428 628 -608 84 -69 362
-266 450 -318 11 -7 52 -31 90 -55 200 -122 452 -245 561 -273 75 -19 110 -22
219 -20 72 1 140 5 153 9 12 3 30 8 40 10 132 33 485 218 757 399 430 286 831
663 1153 1086 101 132 243 342 318 469 27 46 58 97 68 115 29 49 208 403 240
477 134 305 248 634 335 970 5 19 17 62 25 95 34 129 101 487 121 650 4 28 8
60 10 73 2 13 7 53 10 90 3 37 8 76 10 87 17 84 27 581 13 660 -29 168 -128
349 -256 467 -93 87 -186 137 -510 274 -174 74 -326 139 -337 144 -11 5 -202
86 -425 180 -223 94 -418 177 -435 185 -33 15 -527 224 -820 347 -104 44 -208
88 -230 98 -123 54 -149 61 -233 65 -52 2 -105 -2 -132 -9z m-976 -1980 c15
-9 37 -33 51 -54 13 -20 145 -197 292 -392 240 -317 273 -357 317 -379 l49
-25 376 0 c363 0 377 1 416 21 22 12 49 29 60 40 11 10 108 135 215 278 107
143 199 265 203 270 4 6 42 55 83 110 41 55 91 112 111 128 65 49 157 29 203
-45 20 -33 20 -45 17 -938 -2 -498 -7 -921 -11 -940 -37 -174 -87 -322 -143
-420 -11 -19 -31 -53 -43 -75 -32 -54 -124 -169 -185 -230 -197 -197 -447
-325 -720 -370 -90 -14 -347 -14 -425 0 -278 52 -510 174 -710 374 -220 220
-350 493 -377 791 -4 41 -7 455 -7 920 0 947 -4 893 72 939 43 26 115 25 156
-3z"/>
<path d="M2876 3485 c-97 -34 -157 -144 -135 -247 30 -133 165 -206 292 -158
53 20 87 53 119 114 30 57 21 152 -19 210 -55 79 -165 114 -257 81z"/>
<path d="M3976 3488 c-23 -7 -56 -28 -80 -52 -107 -107 -79 -281 57 -353 73
-38 196 -14 256 51 27 28 59 114 56 148 -6 72 -20 104 -65 149 -65 65 -130 82
-224 57z"/>
</g>
</svg>
